<svg xmlns="http://www.w3.org/2000/svg" width="20.347" height="24.101" viewBox="0 0 20.347 24.101" fill="currentColor" class="max-h-full max-w-full">
  <g stroke="currentColor" stroke-width=".1">
    <path data-name="Path 17386" d="M15.491 19.694a.469.469 0 1 1 .461-.385.473.473 0 0 1-.461.385Z"/>
    <path data-name="Path 17387" d="M18.762 8.69a6.2 6.2 0 0 0-3.343-2.338 6.662 6.662 0 0 0-3.058.055l-.034.008-.091.02c-.074.017-.188.045-.31.076-.16.041-.323.078-.485.108q0-.182-.014-.374a6.162 6.162 0 0 1 1.87-3.956A6.643 6.643 0 0 1 15.231.952a.469.469 0 0 0-.342-.868 7.448 7.448 0 0 0-2.223 1.509 7.229 7.229 0 0 0-1.659 2.437 4.837 4.837 0 0 0-1.119-1.837C7.763.071 3.781.732 3.546.773a.457.457 0 0 0-.367.314.6.6 0 0 0-.017.066c-.027.151-.573 3.346.8 5.557a7.353 7.353 0 0 0-3.914 6.923 11.6 11.6 0 0 0 1.142 4.581 14.2 14.2 0 0 0 2.744 4.091 5.044 5.044 0 0 0 3.394 1.747 6.6 6.6 0 0 0 1.88-.276 3.331 3.331 0 0 1 1.811-.033h.006l.11.031a6.6 6.6 0 0 0 1.884.278 4.912 4.912 0 0 0 3.25-1.608 13.985 13.985 0 0 0 4.029-8.812 8.163 8.163 0 0 0-1.536-4.942ZM9.225 2.852a5.247 5.247 0 0 1 1.256 3.409c-.017.211-.025 1.132-.025 1.132L6.9 3.846a.469.469 0 0 0-.663.663l3.582 3.576c-1.224.066-3.343-.027-4.572-1.255-1.478-1.478-1.316-4.226-1.208-5.178.953-.108 3.709-.27 5.185 1.2Zm6.394 18.916a4.033 4.033 0 0 1-2.6 1.346 5.728 5.728 0 0 1-1.609-.236l-.141-.04a4.269 4.269 0 0 0-2.329.04 5.728 5.728 0 0 1-1.609.236 4.172 4.172 0 0 1-2.732-1.472 13.058 13.058 0 0 1-3.612-8.009c0-3.445 1.878-5.444 3.571-6.163l.024.024a6.632 6.632 0 0 0 4.665 1.547 9.91 9.91 0 0 0 1.672-.126c.374-.082.365-.256.388-.364v-.017a9.219 9.219 0 0 0 .107-.965.475.475 0 0 0 .083-.007c.22-.038.441-.085.658-.142l.232-.058c1.934.674 3.846 2.849 3.846 6.269a9.857 9.857 0 0 1-.747 3.455.469.469 0 1 0 .874.339 10.789 10.789 0 0 0 .811-3.795 7.594 7.594 0 0 0-3.162-6.493 4.317 4.317 0 0 1 1.17.122c2.013.521 4.18 2.737 4.18 6.371a13.138 13.138 0 0 1-3.74 8.138Z" fill="#009F7F"/>
  </g>
</svg>
