<svg version="1.0" xmlns="http://www.w3.org/2000/svg" width="68" height="85.333" viewBox="0 0 51 64" fill="#009F7F">
  <path d="M19.2 2c-2 1.2-4.1 3.7-5 6-1.5 3.4-2.2 3.9-5.9 4.5-2.4.3-4.5 1-4.7 1.4-.3.4-1.2 10.1-2.2 21.5-1.6 20.5-1.6 20.8.3 23.4C5.2 63.5 7.3 64 25.6 64c16.1 0 17.3-.1 20.5-2.3 2.1-1.4 3.5-3.3 3.9-5.2.9-4.2-2-40.7-3.2-42.3-.6-.7-2.7-1.5-4.8-1.8-3.1-.5-4-1.2-5.5-4.6C33.3.6 25.7-2 19.2 2zm10.9 3.3c1.5 1.1 3.9 4.9 3.9 6.1 0 .3-3.8.6-8.5.6-9.5 0-10.6-1-6-5.5 2.7-2.7 7.9-3.3 10.6-1.2zM16.8 17.7c-.2 3.5-.7 4.8-1.8 4.8s-1.6-1.3-1.8-4.8c-.3-4.2-.1-4.7 1.8-4.7s2.1.5 1.8 4.7zm21 0c-.2 3.5-.7 4.8-1.8 4.8s-1.6-1.3-1.8-4.8c-.3-4.2-.1-4.7 1.8-4.7s2.1.5 1.8 4.7zm-4.1 14.9c.4 1.1-1.2 3.4-5 7.2L23 45.4 19.5 42c-2.7-2.6-3.2-3.6-2.3-4.7s1.5-1 3.3.7l2.1 2 4.4-4.5c4.8-4.9 5.8-5.3 6.7-2.9z"/>
</svg>
