<svg xmlns="http://www.w3.org/2000/svg" viewBox="0 0 512 512" width="512" height="512" fill="#009F7F" class="max-h-full max-w-full">
  <path d="M213.056 231.438a8 8 0 1 0 5.888-14.876c-18.527-7.335-42.3-11.374-66.944-11.374s-48.417 4.039-66.944 11.374a8 8 0 1 0 5.888 14.876c16.7-6.61 38.382-10.25 61.056-10.25s44.357 3.64 61.056 10.25Z"/>
  <path d="M416 16h-32c-23.366 0-43.613 25.444-58.552 73.58-7.08 22.815-12.528 49.446-16.163 78.42H144v.118c-32.288.855-62.486 6.86-85.746 17.149C31.006 197.319 16 214.135 16 232.617c0 15.891 11.317 30.777 32 42.266v147.166a65.688 65.688 0 0 0-23.435 38.717 29.684 29.684 0 0 0 6.2 24.659A28.79 28.79 0 0 0 53.047 496h293.906a28.681 28.681 0 0 0 17.852-6.229A34.1 34.1 0 0 0 384 496h32c23.366 0 43.613-25.444 58.552-73.58C488.383 377.854 496 318.751 496 256s-7.617-121.854-21.448-166.42C459.613 41.444 439.366 16 416 16ZM53.047 480a12.848 12.848 0 0 1-9.929-4.743 13.738 13.738 0 0 1-2.851-11.416 49.465 49.465 0 0 1 29.246-36.168 111.883 111.883 0 0 0-4.867 19.063A47.027 47.027 0 0 0 71.416 480ZM104 480h-4.639c-4.729 0-9.3-2.31-12.859-6.5-5.263-6.195-7.531-15.233-6.067-24.177 4-24.452 16.7-44.92 33.932-56.125a86.14 86.14 0 0 0-.505 38.033l9.6 45.7a23.548 23.548 0 0 0 .886 3.067Zm18.94-108.547c-18.246 5.984-33.872 19.364-44.576 37.26A63.07 63.07 0 0 0 64 412.654V270.061a8 8 0 0 0-4.415-7.152C41.8 253.993 32 243.235 32 232.617c0-11.593 11.929-23.517 32.727-32.717C87.905 189.646 118.9 184 152 184s64.1 5.646 87.273 15.9c20.8 9.2 32.727 21.125 32.727 32.718 0 10.618-9.8 21.376-27.585 30.292a8 8 0 0 0-4.415 7.151v66.433a82.933 82.933 0 0 0-19.088-6.381 104.007 104.007 0 0 0-41.824 0 82.889 82.889 0 0 0-52.978 36.075 87.541 87.541 0 0 0-3.17 5.265Zm147.539 56.485-9.6 45.707A8.037 8.037 0 0 1 253.05 480h-106.1a8.037 8.037 0 0 1-7.829-6.355l-9.6-45.707a69.688 69.688 0 0 1 9.962-52.964 66.994 66.994 0 0 1 42.8-29.184 88.1 88.1 0 0 1 35.426 0 66.994 66.994 0 0 1 42.8 29.184 69.688 69.688 0 0 1 9.97 52.964ZM313.5 473.5c-3.563 4.193-8.13 6.5-12.859 6.5h-24.99a23.579 23.579 0 0 0 .886-3.066l9.6-45.706a86.14 86.14 0 0 0-.5-38.033c17.233 11.2 29.929 31.674 33.932 56.126 1.46 8.944-.808 17.979-6.069 24.179Zm-36.44-102.047c-1-1.78-2.039-3.543-3.17-5.265A84.568 84.568 0 0 0 256 346.53v-71.647c20.683-11.489 32-26.375 32-42.266 0-18.482-15.006-35.3-42.254-47.35-.982-.435-2-.848-3-1.267h64.745c-2.297 22.984-3.491 47.205-3.491 72 0 56.555 6.13 109.782 17.4 152.319-10.695-17.7-26.228-30.926-44.34-36.866Zm79.822 103.8a12.848 12.848 0 0 1-9.929 4.747h-18.369a47.028 47.028 0 0 0 6.77-33.265 111.965 111.965 0 0 0-4.867-19.062 49.463 49.463 0 0 1 29.246 36.169 13.737 13.737 0 0 1-2.851 11.415ZM384 480a18.245 18.245 0 0 1-9.814-3.218 29.809 29.809 0 0 0 1.249-16.016 65.552 65.552 0 0 0-35.727-46.466 401.074 401.074 0 0 1-9.879-42.129c11.047-3.1 35.55-7.273 67.641 3.423a8 8 0 1 0 5.058-15.17l-.089-.029-.113-.035c-34.435-11.43-61.2-7.762-75.142-4.084a677.754 677.754 0 0 1-7.164-94.85c9.779-3.326 35.077-9.281 69.448 2.176a8 8 0 1 0 5.058-15.17l-.088-.028-.116-.037c-33.673-11.174-60.012-7.529-74.241-3.655a669.018 669.018 0 0 1 6.836-87.643c9.119-3 35.244-9.227 70.549 2.541a8 8 0 1 0 5.058-15.17l-.089-.029-.113-.035c-32.393-10.752-57.989-8.143-72.517-4.733a393.693 393.693 0 0 1 10.918-45.292C352.84 55.3 369.016 32 384 32s31.16 23.3 43.271 62.322C440.639 137.4 448 194.812 448 256s-7.361 118.605-20.729 161.678C415.16 456.7 398.984 480 384 480Zm75.271-62.322C447.16 456.7 430.984 480 416 480h-1.859c10.781-12.331 20.367-31.659 28.411-57.58C456.383 377.854 464 318.751 464 256s-7.617-121.854-21.448-166.42c-8.044-25.921-17.63-45.249-28.411-57.58H416c14.984 0 31.16 23.3 43.271 62.322C472.639 137.4 480 194.812 480 256s-7.361 118.605-20.729 161.678Z"/>
</svg>