<svg xmlns="http://www.w3.org/2000/svg" width="24.6" height="19.335" viewBox="0 0 24.6 19.335" fill="#009F7F" class="max-h-full max-w-full">
  <g data-name="Group 12308">
    <g data-name="Group 12306">
      <path data-name="Path 17416" d="M7.912 17.83a34.57 34.57 0 0 0-7.238.8V2.688h.583v-.357H.486a.183.183 0 0 0-.183.183v16.338a.182.182 0 0 0 .183.183.181.181 0 0 0 .036 0 28.735 28.735 0 0 1 9.287-.669.006.006 0 0 0 .006 0 .005.005 0 0 0 0-.006Z" stroke="#009F7F" stroke-width=".6"/>
    </g>
    <g data-name="Group 12307">
      <path data-name="Path 17417" d="M24.117 2.317h-.776v.371h.593v15.957c-.5-.063-1.009-.13-1.515-.2a47.178 47.178 0 0 0-6.073-.546h-.013l-1.075.311a.048.048 0 0 0 .017.094 37.04 37.04 0 0 1 7.1.5c.576.076 1.152.152 1.724.223a.183.183 0 0 0 .205-.181V2.5a.183.183 0 0 0-.187-.183Z" stroke="#009F7F" stroke-width=".6"/>
    </g>
  </g>
  <g data-name="Group 12309">
    <path data-name="Path 17418" d="M22.381.655a.183.183 0 0 0-.166-.182c-.314-.029-7.587-.67-9.915 1.365C9.973-.197 2.7.445 2.385.473a.183.183 0 0 0-.166.182v15.7a.183.183 0 0 0 .195.183c.073 0 7.272-.441 9.754 2.133a.187.187 0 0 0 .062.042.186.186 0 0 0 .069.013.182.182 0 0 0 .069-.013.187.187 0 0 0 .062-.042c2.481-2.573 9.682-2.138 9.754-2.133a.187.187 0 0 0 .137-.049.183.183 0 0 0 .058-.134Zm-19.8 15.51V.824c1.122-.085 7.578-.49 9.531 1.336v15.967c-2.072-1.743-6.2-1.988-8.356-1.988-.529 0-.941.015-1.171.026Zm19.429 0c-1.16-.056-6.948-.212-9.531 1.962V2.16C14.433.333 20.888.739 22.01.824Z" stroke="#009F7F" stroke-width=".6"/>
  </g>
</svg>