<svg xmlns="http://www.w3.org/2000/svg" viewBox="0 0 16.967 22.1" fill="#009F7F" class="h-full w-full">
  <g stroke="#009F7F" stroke-width=".1">
    <path data-name="Path 17395" d="M.783 20.217v-8.8a8.516 8.516 0 0 1 .693-3.374l.755-1.762c.064-.15.126-.3.183-.46a6.94 6.94 0 0 1 2.722.055 7.585 7.585 0 0 0 2.869.085c.041.107.085.214.13.321l.755 1.763.674-.289-.755-1.763a9.22 9.22 0 0 1-.22-.568 8.55 8.55 0 0 1-.465-2.44h.359a.367.367 0 0 0 .367-.367V1.15a1.1 1.1 0 0 0-1.1-1.1H2.617a1.1 1.1 0 0 0-1.1 1.1v1.467a.367.367 0 0 0 .367.367h.359a8.552 8.552 0 0 1-.45 2.4c-.071.207-.15.412-.235.61L.802 7.75a9.247 9.247 0 0 0-.752 3.667v8.8a1.835 1.835 0 0 0 1.833 1.833H7.75v-.733H1.883a1.1 1.1 0 0 1-1.1-1.1ZM2.25 1.15a.367.367 0 0 1 .367-.367H7.75a.367.367 0 0 1 .367.367v1.1H2.25Zm5.141 1.833a9.271 9.271 0 0 0 .375 2.27 6.855 6.855 0 0 1-2.47-.095 7.673 7.673 0 0 0-2.633-.118 9.278 9.278 0 0 0 .314-2.057Z"/>
    <path data-name="Path 17397" d="M16.916 10.316c0-1.2-2.4-1.833-4.767-1.833s-4.767.63-4.767 1.833a.88.88 0 0 0 .01.132l1.092 11.271a.367.367 0 0 0 .365.33h6.6a.367.367 0 0 0 .365-.33l1.092-11.271a.884.884 0 0 0 .01-.132Zm-1 3-.185.062a5.813 5.813 0 0 1-3.526.053 6.566 6.566 0 0 0-3.778 0l-.033.01-.181-2.047a10.662 10.662 0 0 0 7.873 0Zm-3.767-4.1c2.593 0 4.015.717 4.032 1.093v.046c-.091.382-1.506 1.061-4.028 1.061s-3.937-.679-4.028-1.061v-.046c.01-.375 1.431-1.093 4.025-1.093Zm2.968 12.1H9.183l-.718-7.128.175-.052a5.859 5.859 0 0 1 3.357 0 6.539 6.539 0 0 0 3.845-.02Z"/>
  </g>
</svg>