<svg xmlns="http://www.w3.org/2000/svg" viewBox="0 0 25.408 18.5" fill="#009F7F" class="h-full w-full">
  <g stroke="#fff">
    <path data-name="Path 17388" d="M12.704 3.169a.73.73 0 0 0-.73.73v1.946a.73.73 0 0 0 1.459 0V3.899a.73.73 0 0 0-.729-.73Z" stroke-width=".4"/>
    <path data-name="Path 17389" d="M15.744 3.494a.73.73 0 1 0-1.214.81l.973 1.459a.73.73 0 0 0 1.214-.81Z" stroke-width=".4"/>
    <path data-name="Path 17390" d="M10.676 3.291a.73.73 0 0 0-1.012.2L8.691 4.95a.73.73 0 1 0 1.214.81l.973-1.459a.73.73 0 0 0-.202-1.01Z" stroke-width=".4"/>
    <path data-name="Path 17391" d="M25.158 9.737a2.68 2.68 0 0 0-1.982-2.587 6.867 6.867 0 0 0-3.151-4.777A12.907 12.907 0 0 0 12.704.25a12.907 12.907 0 0 0-7.321 2.125A6.867 6.867 0 0 0 2.232 7.15a2.676 2.676 0 0 0 .159 5.207l.874 3.5a3.158 3.158 0 0 0 3.068 2.393h12.742a3.158 3.158 0 0 0 3.068-2.4l.874-3.5a2.68 2.68 0 0 0 2.141-2.613ZM4.681 15.501l-.772-3.089h3.286l.547 4.378H6.333a1.7 1.7 0 0 1-1.652-1.29Zm12.061-3.089-.547 4.378h-2.761v-4.378Zm-4.768 4.378H9.213l-.547-4.378h3.309Zm8.753-1.29a1.7 1.7 0 0 1-1.652 1.29h-1.409l.547-4.378h3.286Zm1.755-4.55H2.926a1.216 1.216 0 0 1 0-2.432.73.73 0 0 0 .73-.73 5.255 5.255 0 0 1 2.561-4.217 11.44 11.44 0 0 1 6.488-1.864 11.44 11.44 0 0 1 6.488 1.864 5.255 5.255 0 0 1 2.557 4.22.73.73 0 0 0 .73.73 1.216 1.216 0 1 1 0 2.432Z" stroke-width=".5"/>
  </g>
</svg>
