<svg xmlns="http://www.w3.org/2000/svg" width="41" height="30" viewBox="0 0 40.909 30" class="text-muted-light"><path data-name="Path 2125" d="M39.129 16.736a8.064 8.064 0 0 0-4.549-2.887A5.446 5.446 0 0 0 30 5.455a5.207 5.207 0 0 0-3.537 1.321A10.921 10.921 0 0 0 16.363 0 10.511 10.511 0 0 0 8.65 3.2a10.508 10.508 0 0 0-3.196 7.709q0 .277.043.916A9.528 9.528 0 0 0 0 20.455a9.193 9.193 0 0 0 2.8 6.743 9.191 9.191 0 0 0 6.744 2.8h23.184a8.172 8.172 0 0 0 6.4-13.264Zm-12.06-.575a.656.656 0 0 1-.479.2h-4.772v7.5a.691.691 0 0 1-.681.681h-4.092a.691.691 0 0 1-.682-.681v-7.5H11.59a.655.655 0 0 1-.681-.681.8.8 0 0 1 .213-.512L18.6 7.692a.722.722 0 0 1 .98 0l7.5 7.5a.663.663 0 0 1 .191.49.656.656 0 0 1-.201.479Z" fill="#e6e6e6"/></svg>