<svg xmlns="http://www.w3.org/2000/svg" width="25.143" height="22" viewBox="0 0 25.143 22" fill="#009F7F" class="h-full w-full">
  <g data-name="Group 5714">
    <g data-name="Group 5713">
      <path data-name="Path 17398" d="M19.381 8.38H4.713a1.573 1.573 0 0 0-1.571 1.571v1.048a9.928 9.928 0 0 0 5.388 8.847.524.524 0 1 0 .481-.931 8.883 8.883 0 0 1-4.821-7.916V9.951a.524.524 0 0 1 .524-.524h14.667a.524.524 0 0 1 .524.524v1.048a8.879 8.879 0 0 1-4.822 7.915.524.524 0 0 0 .241.99.517.517 0 0 0 .24-.059 9.923 9.923 0 0 0 5.389-8.846V9.951a1.573 1.573 0 0 0-1.572-1.571Z"/>
    </g>
  </g>
  <g data-name="Group 5716">
    <g data-name="Group 5715">
      <path data-name="Path 17399" d="M24.056 19.18a.525.525 0 0 0-.484-.324H.524a.524.524 0 0 0-.371.895l1.174 1.175A3.645 3.645 0 0 0 3.92 22h16.254a3.651 3.651 0 0 0 2.6-1.074l1.174-1.175a.523.523 0 0 0 .108-.571Zm-2.029 1.01a2.6 2.6 0 0 1-1.852.767H3.921a2.6 2.6 0 0 1-1.852-.767l-.281-.281h20.52Z"/>
    </g>
  </g>
  <g data-name="Group 5718">
    <g data-name="Group 5717">
      <path data-name="Path 17400" d="M24.13 10.854c-1.411-.907-3.666.078-3.918.192a.524.524 0 0 0 .435.954c.505-.229 2.125-.773 2.917-.263a1.488 1.488 0 0 1 .532 1.358c0 2.1-4.23 3.365-5.864 3.677l-.371.073a.523.523 0 0 0 .1 1.037.486.486 0 0 0 .1-.01l.368-.072c.274-.052 6.712-1.315 6.712-4.705a2.471 2.471 0 0 0-1.011-2.241Z"/>
    </g>
  </g>
  <g data-name="Group 5720">
    <g data-name="Group 5719">
      <path data-name="Path 17401" d="M16.126 3.993a3.139 3.139 0 0 0 0-3.8.524.524 0 1 0-.818.655 2.113 2.113 0 0 1 0 2.488 3.135 3.135 0 0 0 0 3.8.524.524 0 1 0 .818-.655 2.11 2.11 0 0 1 0-2.488Z"/>
    </g>
  </g>
  <g data-name="Group 5722">
    <g data-name="Group 5721">
      <path data-name="Path 17402" d="M12.978 3.991a3.135 3.135 0 0 0 0-3.8.524.524 0 1 0-.818.655 2.11 2.11 0 0 1 0 2.488 3.139 3.139 0 0 0 0 3.8.524.524 0 1 0 .818-.655 2.113 2.113 0 0 1 0-2.488Z"/>
    </g>
  </g>
  <g data-name="Group 5724">
    <g data-name="Group 5723">
      <path data-name="Path 17403" d="M9.84 3.994a3.139 3.139 0 0 0 0-3.8.524.524 0 0 0-.818.654 2.113 2.113 0 0 1 0 2.488 3.135 3.135 0 0 0 0 3.8.524.524 0 1 0 .818-.654 2.11 2.11 0 0 1 0-2.488Z"/>
    </g>
  </g>
</svg>
