<?xml version="1.0" standalone="no"?>
<!DOCTYPE svg PUBLIC "-//W3C//DTD SVG 20010904//EN"
 "http://www.w3.org/TR/2001/REC-SVG-20010904/DTD/svg10.dtd">
<svg version="1.0" xmlns="http://www.w3.org/2000/svg"
 width="72.000000pt" height="56.000000pt" viewBox="0 0 72.000000 56.000000"
 preserveAspectRatio="xMidYMid meet">

<g transform="translate(0.000000,56.000000) scale(0.100000,-0.100000)"
fill="#000000" stroke="none">
<path d="M174 549 c-11 -6 -28 -23 -38 -39 -15 -26 -23 -29 -74 -32 -53 -3
-57 -5 -57 -28 0 -24 4 -25 59 -28 49 -3 65 -8 93 -33 48 -41 102 -37 143 12
14 17 34 19 215 21 l200 3 0 25 0 25 -193 3 -193 2 -38 40 c-40 42 -73 50
-117 29z"/>
<path d="M429 160 l-38 -40 -193 -2 -193 -3 0 -25 0 -25 199 -3 c197 -2 199
-3 222 -27 41 -45 106 -45 148 0 18 19 34 25 82 27 55 3 59 4 59 28 0 24 -3
25 -62 28 -45 2 -63 7 -63 17 0 23 -59 65 -92 65 -23 0 -41 -10 -69 -40z"/>
</g>
</svg>
