<svg xmlns="http://www.w3.org/2000/svg" width="18.1" height="24.1" viewBox="0 0 18.1 24.1" fill="#009F7F" class="max-h-full max-w-full">
  <g stroke="#009F7F" stroke-width=".1">
    <path data-name="Path 17415" d="M13.734 1.338A1.5 1.5 0 0 0 12.25.05h-6.4a1.5 1.5 0 0 0-1.485 1.288L3.05 12.05h12Zm-8.625.1A.753.753 0 0 1 5.85.8h6.4a.753.753 0 0 1 .741.638l1.212 9.862h-10.3Z"/>
    <path data-name="Path 17416" d="M17.3 9.05h-.75a.75.75 0 0 0-.75.75v.75a.75.75 0 0 0 .75.75v3h-.75a1.5 1.5 0 0 0-1.5-1.5H3.8a1.5 1.5 0 0 0-1.5 1.5h-.75v-3a.75.75 0 0 0 .75-.75V9.8a.75.75 0 0 0-.75-.75H.8a.75.75 0 0 0-.75.75v.75a.75.75 0 0 0 .75.75v3a.75.75 0 0 0 .75.75h.952a1.5 1.5 0 0 0 1.3.75H7.55v1.5a.75.75 0 0 0 .75.75h.375v.75h-2.25a1.877 1.877 0 0 0-1.875 1.875v1.19a1.125 1.125 0 1 0 .75 0v-1.19a1.126 1.126 0 0 1 1.125-1.125h2.25v2.315a1.125 1.125 0 1 0 .75 0V19.55h2.25a1.126 1.126 0 0 1 1.125 1.125v1.19a1.125 1.125 0 1 0 .75 0v-1.19a1.877 1.877 0 0 0-1.875-1.875h-2.25v-.75H9.8a.75.75 0 0 0 .75-.75v-1.5h3.75a1.5 1.5 0 0 0 1.3-.75h.95a.75.75 0 0 0 .75-.75v-3a.75.75 0 0 0 .75-.75V9.8a.75.75 0 0 0-.75-.75ZM.8 10.55V9.8h.75v.75ZM4.925 23.3a.375.375 0 1 1 .375-.375.376.376 0 0 1-.375.375Zm8.25-.75a.375.375 0 1 1-.375.375.376.376 0 0 1 .375-.375Zm-4.125.75a.375.375 0 1 1 .375-.375.376.376 0 0 1-.375.375Zm.75-6H8.3v-1.5h1.5Zm4.5-2.25H3.8a.75.75 0 0 1 0-1.5h10.5a.75.75 0 0 1 0 1.5Zm3-4.5h-.75V9.8h.75Z"/>
  </g>
</svg>
