<?xml version="1.0" standalone="no"?>
<!DOCTYPE svg PUBLIC "-//W3C//DTD SVG 20010904//EN"
 "http://www.w3.org/TR/2001/REC-SVG-20010904/DTD/svg10.dtd">
<svg version="1.0" xmlns="http://www.w3.org/2000/svg"
 width="72.000000pt" height="82.000000pt" viewBox="0 0 72.000000 82.000000"
 preserveAspectRatio="xMidYMid meet">

<g transform="translate(0.000000,82.000000) scale(0.100000,-0.100000)"
fill="#000000" stroke="none">
<path d="M168 655 l-168 -165 0 -235 c0 -221 1 -235 19 -245 25 -13 237 -13
262 0 17 10 19 22 19 115 l0 105 60 0 60 0 0 -109 c0 -104 1 -109 23 -115 37
-10 237 -7 258 4 18 10 19 24 19 244 l0 234 -67 64 c-166 159 -289 268 -303
268 -8 -1 -90 -75 -182 -165z m336 -60 l145 -130 0 -192 1 -193 -80 0 -80 0 0
105 0 105 -27 11 c-42 16 -211 8 -223 -11 -5 -8 -10 -59 -10 -112 l0 -98 -80
0 -80 0 0 191 0 190 138 134 c75 74 140 133 144 132 4 -1 72 -60 152 -132z"/>
</g>
</svg>
