<?xml version="1.0" standalone="no"?>
<!DOCTYPE svg PUBLIC "-//W3C//DTD SVG 20010904//EN"
 "http://www.w3.org/TR/2001/REC-SVG-20010904/DTD/svg10.dtd">
<svg version="1.0" xmlns="http://www.w3.org/2000/svg"
 width="102.000000pt" height="72.000000pt" viewBox="0 0 102.000000 72.000000"
 preserveAspectRatio="xMidYMid meet">

<g transform="translate(0.000000,72.000000) scale(0.100000,-0.100000)"
fill="#000000" stroke="none">
<path d="M16 704 c-20 -20 -20 -48 0 -68 23 -24 455 -24 478 0 20 20 20 48 0
68 -23 24 -455 24 -478 0z"/>
<path d="M16 394 c-9 -8 -16 -24 -16 -34 0 -10 7 -26 16 -34 14 -14 72 -16
490 -16 309 0 482 4 495 10 12 7 19 21 19 40 0 19 -7 33 -19 40 -13 6 -186 10
-495 10 -418 0 -476 -2 -490 -16z"/>
<path d="M16 84 c-20 -20 -20 -48 0 -68 13 -14 59 -16 343 -16 305 0 329 1
344 18 22 24 21 45 -1 65 -17 15 -55 17 -345 17 -283 0 -328 -2 -341 -16z"/>
</g>
</svg>
