<svg xmlns="http://www.w3.org/2000/svg" width="18.814" height="24" viewBox="0 0 18.814 24" fill="#009F7F" class="max-h-full max-w-full">
  <path data-name="Path 17426" d="M6.762 12.226a.721.721 0 0 0-.448-.579.411.411 0 0 0-.125-.041v-4.5a.591.591 0 0 0-.29-.5V4.259a6.977 6.977 0 0 0-.675-2.868v-.014a3.2 3.2 0 0 0-.272-.449A1.188 1.188 0 0 0 3.605.566a2.261 2.261 0 0 0-1.492 1.22l-.022.045a6.315 6.315 0 0 0-.338.874c0 .007-.006.012-.008.019s0 .01 0 .015a7.074 7.074 0 0 0-.292 2.044V6.49c-.336.144-.509.35-.509.613v4.486c-.354.155-.545.364-.57.622v.017a71.956 71.956 0 0 0-.289 10.391c0 .787 1.5 1.38 3.49 1.38s3.49-.593 3.489-1.355a72.1 72.1 0 0 0-.288-10.417Zm-1.78-8.867a5.335 5.335 0 0 1 .085.9v2.779a6.961 6.961 0 0 1-1.5.142 7.622 7.622 0 0 1-1.284-.1v-2.3a6.715 6.715 0 0 1 .043-.751 1.974 1.974 0 0 0 .891.2 2.569 2.569 0 0 0 1.765-.87ZM1.773 7.823a8.613 8.613 0 0 0 3.585 0v4.508a10.2 10.2 0 0 1-3.585 0ZM2.86 2.147a1.447 1.447 0 0 1 .938-.773c.172-.042.394-.067.479.048a2.406 2.406 0 0 1 .206.344.832.832 0 0 1-.006.876 1.743 1.743 0 0 1-1.264.749.87.87 0 0 1-.655-.213c-.017-.023-.055-.077-.019-.21a5.462 5.462 0 0 1 .3-.781Zm3.364 20.4a6.081 6.081 0 0 1-5.316 0 71.567 71.567 0 0 1 .219-9.528 10 10 0 0 0 4.877 0 71.829 71.829 0 0 1 .216 9.534Z"/>
  <path data-name="Path 17427" d="M18.536 1.993C17.919.67 16.336 0 13.836 0s-4.08.671-4.7 1.994c-1.3 2.781 2.328 7.41 2.923 8.139l-.194 12.539c0 .514.524 1.279 1.969 1.279s1.969-.765 1.969-1.286l-.195-12.532c.598-.727 4.223-5.357 2.928-8.14Zm-5.671 10.394.026-1.66a3.555 3.555 0 0 0 .65.1.415.415 0 0 0 .088.01h.211a3.918 3.918 0 0 0 .949-.107l.026 1.66a2.931 2.931 0 0 1-1.949 0ZM9.899 2.346c.468-1 1.794-1.511 3.94-1.511s3.472.508 3.94 1.511c.836 1.792-1.112 5.009-2.374 6.7a6.637 6.637 0 0 0 .23-1.731.417.417 0 0 0-.417-.417.418.418 0 0 0-.417.417c0 .657-.2 2.461-1.017 2.665a2.056 2.056 0 0 1-.49-1.175.418.418 0 0 0-.826.123 4.453 4.453 0 0 0 .112.518c-1.214-1.531-3.589-5.153-2.681-7.1Zm3.94 20.771c-.9 0-1.126-.359-1.134-.438l.146-9.408a4.2 4.2 0 0 0 1.976 0l.146 9.4c-.007.087-.234.444-1.134.444Z"/>
</svg>
