<svg xmlns="http://www.w3.org/2000/svg" viewBox="0 0 24.003 24" fill="#009F7F" class="h-full w-full">
  <g data-name="Meat &amp; Fish">
    <path data-name="Path 17433" d="M9.882 17.999c-.186 0-.366-.005-.542-.016a.465.465 0 0 1-.27-.108 36.913 36.913 0 0 1-1.546-1.38c-.508-.508-.952-1.036-1.383-1.546a.545.545 0 0 1-.124-.289c-.234-3.811 2.129-10.143 4.769-12.784a9.528 9.528 0 0 1 1.8-1.453.464.464 0 1 1 .5.781 8.639 8.639 0 0 0-1.629 1.318c-2.42 2.42-4.661 8.375-4.515 11.929.4.474.8.944 1.236 1.378.439.414.907.835 1.379 1.236 3.5.153 9.508-2.1 11.919-4.506a8.691 8.691 0 0 0 1.328-1.638.464.464 0 1 1 .781.5 9.625 9.625 0 0 1-1.462 1.8c-2.518 2.513-8.396 4.778-12.241 4.778Z"/>
    <path data-name="Path 17434" d="M4.791 24a2.457 2.457 0 0 1-1.745-.729 2.547 2.547 0 0 1-.707-1.61 2.454 2.454 0 0 1-2.338-2.483 2.479 2.479 0 0 1 3.513-2.21l2.637-2.663a.464.464 0 0 1 .659.653l-2.889 2.916a.465.465 0 0 1-.592.055 1.547 1.547 0 0 0-2.4 1.257 1.544 1.544 0 0 0 .457 1.114 1.572 1.572 0 0 0 1.365.416.463.463 0 0 1 .535.536 1.592 1.592 0 0 0 .425 1.374 1.54 1.54 0 0 0 2.355-1.963.464.464 0 0 1 .062-.583l2.916-2.888a.463.463 0 1 1 .652.658l-2.668 2.644a2.487 2.487 0 0 1-.491 2.778A2.454 2.454 0 0 1 4.791 24Z"/>
    <path data-name="Path 17435" d="M21.983 11.983a5.236 5.236 0 0 1-2-.475 14.609 14.609 0 0 1-4.374-3.117c-2.193-2.193-3.6-4.707-3.593-6.4A1.862 1.862 0 0 1 14.005.004h.018c1.7 0 4.2 1.408 6.385 3.593 2.629 2.655 4.592 6.308 3.05 7.848a2.011 2.011 0 0 1-1.475.538ZM14.023.927h-.014a.948.948 0 0 0-1.067 1.066c-.008 1.439 1.327 3.747 3.322 5.743a13.669 13.669 0 0 0 4.084 2.92c1.138.483 2.054.532 2.455.133.814-.814-.239-3.7-3.054-6.541C17.762 2.259 15.463.927 14.023.927Z"/>
    <path data-name="Path 17436" d="M21.423 10.41c-1.039 0-2.9-1.214-4.749-3.084-1.538-1.518-3.09-3.585-3.079-4.77a.963.963 0 0 1 .283-.715.95.95 0 0 1 .7-.266h.002c1.187 0 3.243 1.544 4.76 3.081 1.868 1.845 3.079 3.707 3.082 4.746a.944.944 0 0 1-1 1.008Zm-6.811-7.916a.268.268 0 0 0-.1.017c-.133.33.7 2.069 2.815 4.161 2.27 2.3 3.912 2.933 4.181 2.8.115-.253-.521-1.895-2.816-4.159-1.938-1.963-3.572-2.82-4.08-2.82Z"/>
    <path data-name="Path 17437" d="m10.848 6.304-.83-.41a5.223 5.223 0 0 1 .391-.689.464.464 0 0 1 .755.539 4.148 4.148 0 0 0-.316.56Z"/>
    <path data-name="Path 17438" d="M8.469 11.852a.478.478 0 0 1-.095-.01.463.463 0 0 1-.359-.548 18.285 18.285 0 0 1 1.23-3.8.464.464 0 0 1 .845.381 17.358 17.358 0 0 0-1.168 3.611.463.463 0 0 1-.453.366Z"/>
    <path data-name="Path 17439" d="M18.199 6.642a.463.463 0 0 1-.328-.136l-.382-.382a.463.463 0 0 1 .655-.655l.382.382a.464.464 0 0 1-.328.791Z"/>
  </g>
</svg>