<svg xmlns="http://www.w3.org/2000/svg" viewBox="0 0 17.112 24" fill="#009F7F" class="h-full w-full">
  <path data-name="Path 17448" d="M17.112 6.673a.432.432 0 0 0-.432-.432h-1.467a6.671 6.671 0 0 0-13.314 0H.432A.433.433 0 0 0 0 6.673a8.567 8.567 0 0 0 8.124 8.545v6.335h-3.6a1.224 1.224 0 1 0 0 2.447h8.065a1.224 1.224 0 1 0 0-2.447h-3.6v-6.335a8.567 8.567 0 0 0 8.123-8.545Zm-4.165 16.1a.359.359 0 0 1-.359.358H4.523a.359.359 0 1 1 0-.717h8.065a.359.359 0 0 1 .359.363ZM8.556.861a5.808 5.808 0 1 1-5.808 5.808A5.814 5.814 0 0 1 8.556.861ZM.877 7.101h1.022a6.671 6.671 0 0 0 13.314 0h1.022a7.691 7.691 0 0 1-15.358 0Z"/>
  <path data-name="Path 17449" d="M5.536 7.694a.431.431 0 0 0 .306-.127l3.391-3.392a.432.432 0 0 0-.612-.611L5.23 6.955a.432.432 0 0 0 .306.738Z"/>
  <path data-name="Path 17450" d="M10.662 5.217a.431.431 0 0 0 .306-.127l.569-.569a.433.433 0 0 0-.612-.612l-.569.569a.433.433 0 0 0 .306.738Z"/>
  <path data-name="Path 17451" d="M5.578 9.872a.432.432 0 0 0 .611 0l3.894-3.894a.432.432 0 0 0-.611-.611L5.578 9.261a.432.432 0 0 0 0 .611Z"/>
</svg>
