<?xml version="1.0" standalone="no"?>
<!DOCTYPE svg PUBLIC "-//W3C//DTD SVG 20010904//EN"
 "http://www.w3.org/TR/2001/REC-SVG-20010904/DTD/svg10.dtd">
<svg version="1.0" xmlns="http://www.w3.org/2000/svg"
 width="72.000000pt" height="72.000000pt" viewBox="0 0 72.000000 72.000000"
 preserveAspectRatio="xMidYMid meet">

<g transform="translate(0.000000,72.000000) scale(0.100000,-0.100000)"
fill="#000000" stroke="none">
<path d="M65 711 c-11 -5 -29 -19 -40 -31 -19 -21 -20 -36 -20 -321 l0 -299
28 -27 27 -28 300 0 300 0 27 28 28 27 3 288 c2 273 1 289 -18 320 -11 18 -32
37 -46 42 -31 12 -560 12 -589 1z m573 -73 c17 -17 17 -539 0 -556 -17 -17
-539 -17 -556 0 -17 17 -17 539 0 556 17 17 539 17 556 0z"/>
<path d="M183 564 c-8 -21 12 -83 40 -125 47 -70 121 -96 194 -68 60 22 112
97 116 167 2 35 0 37 -30 40 -26 3 -33 0 -33 -15 -1 -61 -65 -133 -118 -133
-32 0 -80 53 -94 104 -11 41 -15 46 -40 46 -17 0 -31 -7 -35 -16z"/>
</g>
</svg>
