<svg xmlns="http://www.w3.org/2000/svg" viewBox="0 0 20.59 25.05" fill="#009F7F" class="h-full w-full">
  <g data-name="home cleaner" transform="translate(-2142.193 -787.635)" fill="none" stroke="#009F7F" stroke-linecap="round" stroke-linejoin="round" stroke-width=".9">
    <path data-name="Path 17440" d="M2149.146 793.792a2.538 2.538 0 0 1 2.6-1.81v-1.584a27.676 27.676 0 0 0-3.734-.111 3.962 3.962 0 0 0-3.169 2.034c-.33.684 2.49-.339 2.716 1.471"/>
    <path data-name="Path 17441" d="M2151.299 792.014a10.742 10.742 0 0 0 1.89 3.765c.082.119-.025.28-.137.207a6.8 6.8 0 0 1-2.94-3.5"/>
    <path data-name="Path 17442" d="M2146.939 795.398a2.93 2.93 0 0 0 1.4.214 3.341 3.341 0 0 0 1.319-.214v-1.436a.17.17 0 0 0-.169-.17h-2.377a.17.17 0 0 0-.169.17Z"/>
    <path data-name="Path 17444" d="M2151.748 790.397h1.328v1.584h-1.328"/>
    <path data-name="Path 17445" d="M2153.421 807.012a15.113 15.113 0 0 1-1.134 4.707.744.744 0 0 1-.68.515h-7.4a.751.751 0 0 1-.688-.544 12.078 12.078 0 0 1 2.065-12.242 3.527 3.527 0 0 0 .679-3.055 1.052 1.052 0 0 1 .675-1.195"/>
    <path data-name="Path 17446" d="M2149.654 795.263c1.471.905-.25 1.974.006 2.2.847.757-.006 1.8-.006 1.8a1.4 1.4 0 0 1 .369 1.741 8.765 8.765 0 0 1 2.391 2.01"/>
    <path data-name="Line 15" d="m2154.628 789.746 3.16-1.511"/>
    <path data-name="Line 16" d="m2154.628 792.632 3.16 1.511"/>
    <path data-name="Line 17" d="M2154.628 791.189h4.259"/>
    <circle data-name="Ellipse 9" cx="2.047" cy="2.047" r="2.047" transform="translate(2158.239 799.709)"/>
    <path data-name="Path 17447" d="M2154.981 798.275a1.489 1.489 0 0 0 2.978 0 1.489 1.489 0 0 0-2.978 0Z"/>
    <circle data-name="Ellipse 10" cx="2.764" cy="2.764" r="2.764" transform="translate(2152.212 802.109)"/>
  </g>
</svg>