<svg xmlns="http://www.w3.org/2000/svg" width="23.878" height="24.3" viewBox="0 0 23.878 24.3" fill="#009F7F" class="max-h-full max-w-full">
  <path d="M8.604.15h6.808a2.594 2.594 0 0 1 1.833.763 2.592 2.592 0 0 1 .763 1.833v2.718h3.328a2.384 2.384 0 0 1 1.686.7 2.383 2.383 0 0 1 .7 1.686v3.227a5.569 5.569 0 0 1-.606 2.532v6.066a4.48 4.48 0 0 1-4.469 4.469H5.312a4.567 4.567 0 0 1-4.556-4.556v-5.973a5.569 5.569 0 0 1-.606-2.532V7.855a2.384 2.384 0 0 1 .7-1.687 2.382 2.382 0 0 1 1.688-.7h3.328v-2.58A2.742 2.742 0 0 1 8.602.152Zm13.29 15.077a5.6 5.6 0 0 1-3.443 1.462h-4.02v.718a1.838 1.838 0 0 1-.541 1.3 1.841 1.841 0 0 1-1.3.541h-1.245a1.891 1.891 0 0 1-1.339-.556 1.887 1.887 0 0 1-.556-1.337v-.668H5.424a5.6 5.6 0 0 1-3.443-1.462v4.367a3.339 3.339 0 0 0 3.328 3.328H18.65a3.252 3.252 0 0 0 3.241-3.241v-4.452Zm-3.883-8.533H2.539a1.159 1.159 0 0 0-.82.342 1.158 1.158 0 0 0-.339.82v3.227a4.405 4.405 0 0 0 4.161 4.383h12.794a4.4 4.4 0 0 0 4.161-4.383V7.855a1.157 1.157 0 0 0-.339-.82 1.157 1.157 0 0 0-.82-.339ZM13.204 16.7h-2.53v.668a.669.669 0 0 0 .2.472.667.667 0 0 0 .471.2h1.245a.615.615 0 0 0 .436-.182.62.62 0 0 0 .18-.437v-.718Zm2.208-15.322H8.604a1.515 1.515 0 0 0-1.509 1.509v2.58h9.688V2.749a1.365 1.365 0 0 0-.4-.968 1.365 1.365 0 0 0-.971-.403Z" stroke="#fff" stroke-width=".3" fill-rule="evenodd"/>
</svg>