<svg version="1.0" xmlns="http://www.w3.org/2000/svg" width="88" height="98.667" viewBox="0 0 66 74">
  <path d="M25.2 2.1c-10.7 5.4-13.1 19.2-4.9 28.6 7.9 9 20.8 8.1 27.3-1.7C58 13.3 41.7-6.3 25.2 2.1zm15 8.4c4.9 4.8 4.5 11.8-.9 16.5-4.6 4.1-8.5 4-12.9-.4-2.9-2.9-3.4-4.1-3.4-8.1 0-3.8.5-5.2 2.9-7.6 4-3.9 10.6-4.1 14.3-.4zM22.1 43c-5.6 1.2-12 5-15.9 9.5-3.5 3.9-6.5 12.8-6 17.7l.3 3.3h65l.3-4.2c.7-10-4.6-18.6-14.6-23.5-5.3-2.6-7.5-3.1-15.5-3.4-5-.2-11.2.1-13.6.6zm23 8.1c6.8 2.3 11.1 6.6 12.9 13l.9 2.9H7.8l.6-3.1c1.2-6 6.1-10.7 13.6-13 3.9-1.2 19.3-1 23.1.2z"/>
</svg>